/* XPM */
const char *clipboard_xpm[] = {
/* columns rows colors chars-per-pixel */
"32 32 8 1",
"  c black",
". c navy",
"X c #808000",
"o c yellow",
"O c #808080",
"+ c #c0c0c0",
"@ c white",
"# c None",
/* pixels */
"################################",
"################################",
"################################",
"################################",
"################################",
"################################",
"################################",
"################################",
"#############    ###############",
"#########     oo     ###########",
"######## OXO o  o XOX ##########",
"######## XO ++++++ XO ##########",
"######## OX        OX ##########",
"######## XOXOXOXOXOXO ##########",
"######## OXOXO....... ##########",
"######## XOXOX.@@@@@..##########",
"######## OXOXO.@@@@@.@.#########",
"######## XOXOX.@...@...#########",
"######## OXOXO.@@@@@@@.#########",
"######## XOXOX.@.....@.#########",
"#########     .@@@@@@@.#########",
"##############.........#########",
"################################",
"################################",
"################################",
"################################",
"################################",
"################################",
"################################",
"################################",
"################################",
"################################"
};
