/* XPM */
static char * clipboard_xpm[] = {
"32 32 393 2",
"  	c None",
". 	c #CFCFCF",
"+ 	c #353535",
"@ 	c #000000",
"# 	c #020200",
"$ 	c #070700",
"% 	c #FAFAFA",
"& 	c #D7D7D7",
"* 	c #C8C8C8",
"= 	c #CACACA",
"- 	c #CCCCCC",
"; 	c #D0D0D0",
"> 	c #DADADA",
", 	c #A2A2A2",
"' 	c #2A2A2A",
") 	c #060600",
"! 	c #2B2B00",
"~ 	c #3F3F00",
"{ 	c #D8D8D8",
"] 	c #E5E5E5",
"^ 	c #616161",
"/ 	c #252525",
"( 	c #2F2F2F",
"_ 	c #343434",
": 	c #363636",
"< 	c #383838",
"[ 	c #0B0B0B",
"} 	c #1C1C00",
"| 	c #ABAB00",
"1 	c #F3F300",
"2 	c #626263",
"3 	c #E6E6E6",
"4 	c #FEFEFE",
"5 	c #CFCFD0",
"6 	c #A4A4A5",
"7 	c #303034",
"8 	c #181815",
"9 	c #181801",
"0 	c #191901",
"a 	c #1C1C16",
"b 	c #131316",
"c 	c #000002",
"d 	c #5B5B02",
"e 	c #B9B901",
"f 	c #E7E700",
"g 	c #131300",
"h 	c #1C1C06",
"i 	c #191917",
"j 	c #181816",
"k 	c #181803",
"l 	c #2F2F1A",
"m 	c #A0A09B",
"n 	c #353537",
"o 	c #3D3D42",
"p 	c #575767",
"q 	c #686858",
"r 	c #646409",
"s 	c #686809",
"t 	c #73735A",
"u 	c #4F4F5B",
"v 	c #00000E",
"w 	c #1A1A00",
"x 	c #AAAA00",
"y 	c #BEBE01",
"z 	c #535301",
"A 	c #4F4F00",
"B 	c #737319",
"C 	c #68685E",
"D 	c #64645B",
"E 	c #686810",
"F 	c #525201",
"G 	c #000001",
"H 	c #1A1A16",
"I 	c #6B6B5A",
"J 	c #949463",
"K 	c #8E8E2A",
"L 	c #858529",
"M 	c #797961",
"N 	c #5A5A67",
"O 	c #29293B",
"P 	c #595926",
"Q 	c #EAEA29",
"R 	c #E7E72B",
"S 	c #4F4F2B",
"T 	c #03032B",
"U 	c #EAEA2C",
"V 	c #59592E",
"W 	c #292920",
"X 	c #5A5A01",
"Y 	c #797914",
"Z 	c #85855A",
"` 	c #8E8E65",
" .	c #949433",
"..	c #696910",
"+.	c #1A1A01",
"@.	c #676709",
"#.	c #8D8D63",
"$.	c #6B6B61",
"%.	c #282826",
"&.	c #303033",
"*.	c #848488",
"=.	c #BDBDB0",
"-.	c #DCDCA9",
";.	c #D7D7A6",
">.	c #AEAEA6",
",.	c #9A9AA6",
"'.	c #DCDCAA",
").	c #BDBDB2",
"!.	c #848484",
"~.	c #303020",
"{.	c #282800",
"].	c #6B6B05",
"^.	c #8D8D2B",
"/.	c #65655C",
"(.	c #1A1A02",
"_.	c #666609",
":.	c #8C8C2A",
"<.	c #8C8C62",
"[.	c #5F5F56",
"}.	c #040404",
"|.	c #0E0E11",
"1.	c #7D7D7D",
"2.	c #ABABB0",
"3.	c #9898AA",
"4.	c #9393A6",
"5.	c #9F9FA3",
"6.	c #A5A5A3",
"7.	c #A5A5A6",
"8.	c #9F9FA6",
"9.	c #9393A3",
"0.	c #9898A7",
"a.	c #ABABB1",
"b.	c #7D7D83",
"c.	c #0E0E1D",
"d.	c #040400",
"e.	c #5F5F05",
"f.	c #63635A",
"g.	c #1A1A18",
"h.	c #66665C",
"i.	c #626208",
"j.	c #0D0D00",
"k.	c #161619",
"l.	c #242427",
"m.	c #1E1E2B",
"n.	c #1D1D2A",
"o.	c #212123",
"p.	c #232323",
"q.	c #23232A",
"r.	c #21212A",
"s.	c #1D1D23",
"t.	c #1E1E24",
"u.	c #24242D",
"v.	c #16161E",
"w.	c #0D0D0D",
"x.	c #626259",
"y.	c #636309",
"z.	c #8B8B62",
"A.	c #8A8A2A",
"B.	c #6B6B08",
"C.	c #2F2F00",
"D.	c #101000",
"E.	c #0C0C0D",
"F.	c #0B0B09",
"G.	c #0B0B00",
"H.	c #0E0E07",
"I.	c #0F0F07",
"J.	c #0F0F00",
"K.	c #0E0E00",
"L.	c #13130A",
"M.	c #32322F",
"N.	c #6E6E62",
"O.	c #8D8D5F",
"P.	c #8E8E26",
"Q.	c #666606",
"R.	c #89892A",
"S.	c #848462",
"T.	c #7A7A57",
"U.	c #616158",
"V.	c #606057",
"W.	c #606005",
"X.	c #636303",
"Y.	c #68684F",
"Z.	c #6B6B50",
"`.	c #6A6A03",
" +	c #6A6A50",
".+	c #6A6A04",
"++	c #6C6C51",
"@+	c #74745B",
"#+	c #838321",
"$+	c #8E8E20",
"%+	c #939357",
"&+	c #6A6A52",
"*+	c #1A1A14",
"=+	c #888829",
"-+	c #828260",
";+	c #818160",
">+	c #878729",
",+	c #898929",
"'+	c #89895F",
")+	c #89895E",
"!+	c #8A8A27",
"~+	c #838330",
"{+	c #747479",
"]+	c #6B6B76",
"^+	c #696928",
"/+	c #686828",
"(+	c #686874",
"_+	c #696974",
":+	c #696975",
"<+	c #676772",
"[+	c #616120",
"}+	c #626221",
"|+	c #6B6B77",
"1+	c #4F4F72",
"2+	c #13131A",
"3+	c #88885F",
"4+	c #828222",
"5+	c #808022",
"6+	c #838360",
"7+	c #838322",
"8+	c #85851F",
"9+	c #8A8A58",
"0+	c #6E6E7A",
"a+	c #323283",
"b+	c #12127C",
"c+	c #0C0C63",
"d+	c #090960",
"e+	c #0A0A75",
"f+	c #0B0B75",
"g+	c #0B0B61",
"h+	c #0A0A74",
"i+	c #07075E",
"j+	c #181883",
"k+	c #151566",
"l+	c #050512",
"m+	c #808021",
"n+	c #80805E",
"o+	c #83831F",
"p+	c #898956",
"q+	c #626275",
"r+	c #0F0F7B",
"s+	c #000088",
"t+	c #1D1D9C",
"u+	c #2E2EA3",
"v+	c #2C2C9B",
"w+	c #2A2A9B",
"x+	c #2A2AA1",
"y+	c #20209E",
"z+	c #01018E",
"A+	c #000066",
"B+	c #00002A",
"C+	c #363640",
"D+	c #83835D",
"E+	c #898920",
"F+	c #606021",
"G+	c #9B9BD5",
"H+	c #D6D6EE",
"I+	c #CCCCE8",
"J+	c #C8C8E5",
"K+	c #C8C8E7",
"L+	c #9F9FD4",
"M+	c #272797",
"N+	c #000071",
"O+	c #000061",
"P+	c #38387D",
"Q+	c #DADAE5",
"R+	c #5F5F20",
"S+	c #06065E",
"T+	c #D7D7EB",
"U+	c #333398",
"V+	c #00007F",
"W+	c #29299C",
"X+	c #5B5BB5",
"Y+	c #AFAFD9",
"Z+	c #DADAEA",
"`+	c #5F5F73",
" @	c #070774",
".@	c #2B2B9B",
"+@	c #CBCBE7",
"@@	c #C9C9E4",
"#@	c #252592",
"$@	c #1F1F90",
"%@	c #B7B7DD",
"&@	c #CACAE7",
"*@	c #5B5BAE",
"=@	c #383893",
"-@	c #606073",
";@	c #080875",
">@	c #CCCCE7",
",@	c #D6D6EB",
"'@	c #C1C1E0",
")@	c #C3C3E1",
"!@	c #C8C8E4",
"~@	c #202090",
"{@	c #1A1A8C",
"]@	c #B5B5D9",
"^@	c #B8B8DB",
"/@	c #2E2E97",
"(@	c #000078",
"_@	c #606020",
":@	c #08085F",
"<@	c #2F2FA3",
"[@	c #D7D7EF",
"}@	c #E4E4F1",
"|@	c #5454AA",
"1@	c #121289",
"2@	c #1C1C8E",
"3@	c #5555AA",
"4@	c #E5E5F2",
"5@	c #D5D5EA",
"6@	c #262693",
"7@	c #010174",
"8@	c #19198C",
"9@	c #232391",
"0@	c #090984",
"a@	c #00007E",
"b@	c #5959AC",
"c@	c #18188C",
"d@	c #222291",
"e@	c #E6E6F2",
"f@	c #EBEBF5",
"g@	c #6969B4",
"h@	c #272793",
"i@	c #242492",
"j@	c #060683",
"k@	c #D4D4E9",
"l@	c #D6D6EA",
"m@	c #D3D3E9",
"n@	c #EAEAF4",
"o@	c #D9D9EC",
"p@	c #9B9BCD",
"q@	c #000079",
"r@	c #67675E",
"s@	c #8C8C63",
"t@	c #868623",
"u@	c #86861F",
"v@	c #8C8C59",
"w@	c #CACAE6",
"x@	c #D8D8EB",
"y@	c #C7C7E3",
"z@	c #C6C6E2",
"A@	c #CFCFE7",
"B@	c #DDDDEE",
"C@	c #38389C",
"D@	c #000076",
"E@	c #1A1A03",
"F@	c #6B6B11",
"G@	c #8C8C5F",
"H@	c #929227",
"I@	c #676728",
"J@	c #090961",
"K@	c #282894",
"L@	c #1D1D8E",
"M@	c #16168B",
"N@	c #5B5BAD",
"O@	c #DFDFEF",
"P@	c #3A3A9C",
"Q@	c #3D3D29",
"R@	c #575706",
"S@	c #656559",
"T@	c #6A6A08",
"U@	c #494907",
"V@	c #020257",
"W@	c #3434A6",
"X@	c #DDDDF2",
"Y@	c #5A5AAD",
"Z@	c #A4A49F",
"`@	c #30301B",
" #	c #181814",
".#	c #191900",
"+#	c #0D0D11",
"@#	c #000059",
"##	c #3939A7",
"$#	c #DDDDF1",
"%#	c #E9E9F4",
"&#	c #616162",
"*#	c #2A2A41",
"=#	c #0B0B6A",
"-#	c #28289B",
";#	c #A0A0D2",
">#	c #DEDEEE",
",#	c #A0A0D0",
"'#	c #A2A2BC",
")#	c #2A2A8D",
"!#	c #0A0A86",
"~#	c #39399C",
"{#	c #0A0A85",
"]#	c #F5F5FA",
"^#	c #DADAF4",
"/#	c #39399E",
"(#	c #00007D",
"_#	c #000077",
":#	c #010180",
"                                                                ",
"                                                                ",
"                      . + @ # $ $ # @ + .                       ",
"      % & * = - - ; > , ' ) ! ~ ~ ! ) ' , > ; - - = * { %       ",
"      ] ^ / ( _ _ : < ' [ } | 1 1 | } [ ' < : _ _ ( / 2 3     4 ",
"    5 6 7 8 9 0 a b c @ } d e f f e d } @ @ g h i j k l m 3 %   ",
"    n o p q r s t u v w x y z } } z y x w @ A B C D E F l 2 {   ",
"    G H I J K L M N O P Q R S T T S R U V W X Y Z `  ...k / *   ",
"    @ +.@.K #.$.%.&.*.=.-.;.>.,.,.>.;.'.).!.~.{.].^.` /.j ( =   ",
"    @ (._.:.<.[.}.|.1.2.3.4.5.6.7.8.9.0.a.b.c.d.e.:.<.f.j _ -   ",
"    G g.h.<.:.i.j.c k.l.m.n.o.p.q.r.s.t.u.v.@ w.x.<.:.y.9 _ -   ",
"    G g.h.z.A.B.C.D.E.F.G.j.H.I.J.J.I.I.K.J.L.M.N.O.P.Q.9 _ -   ",
"    @ (._.R.S.T.B.y.U.V.W.X.Y.Z.`.`. + +`..+++@+#+$+%+&+*+_ -   ",
"    @ (._.=+-+;+>+,+'+)+!+~+{+]+^+/+(+_+^+^+:+<+[+}+|+1+2+_ -   ",
"    G g.h.3+4+5+-+6+7+8+9+0+a+b+c+d+e+f+g+g+f+h+i+c+j+k+l+_ -   ",
"    G g.h.'+7+m+n+n+m+o+p+q+r+s+t+u+v+w+x+x+w+v+u+y+z+A+B+C+;   ",
"    @ (._.,+6+n+m+m+n+D+E+F+d+t+G+H+I+J+K+K+J+I+H+L+M+N+O+P+Q+  ",
"    @ (._.,+6+n+m+m+n+D+E+R+S+u+H+                T+U+V+W+X+Y+Z+",
"    G g.h.'+7+m+n+n+m+o+p+`+ @.@+@                @@#@$@%@&@*@=@",
"    G g.h.'+7+m+n+n+m+o+p+-@;@v+>@  ,@'@)@)@'@T+  !@~@{@]@^@/@(@",
"    @ (._.,+6+n+m+m+n+D+E+_@:@<@[@}@|@1@2@2@1@3@4@5@6@7@8@9@0@a@",
"    @ (._.,+6+n+m+m+n+D+E+_@:@<@[@4@b@c@d@d@c@b@e@f@g@h@i@8@j@a@",
"    G g.h.'+7+m+n+n+m+o+p+-@;@.@+@  4@k@l@5@m@}@    n@o@l@p@h@q@",
"    G g.r@s@t@7+6+6+7+u@v@q+;@.@w@  4@k@l@T+x@m@y@z@A@n@  B@C@D@",
"    @ E@F@ .s@'+,+,+'+G@H@I@J@<@[@4@b@c@d@h@K@6@d@L@M@N@n@O@P@D@",
"    + Q@R@../.f.y.y.f.S@T@U@V@W@X@n@Y@c@d@h@h@h@h@d@c@Y@n@O@P@D@",
"    . Z@`@k j j 9 9 j  #.#+#@###$#  %#m@5@T+T+T+T+5@m@%#  B@C@D@",
"      ] &#/ ( _ _ _ _ : < *#=#-#;#B@>#>#B@B@B@B@B@B@>#>#B@,#K@(@",
"      % & * = - - - - ; > '#)#!#K@C@~#P@~#~#~#~#~#~#P@~#C@K@{#a@",
"    ]#                    ^#/#(#(@D@D@_#_#_#_#_#_#_#_#D@D@(@a@:#",
"                                                                ",
"                                                                "};
